<svg width="162" height="21" viewBox="0 0 162 21" fill="none" xmlns="http://www.w3.org/2000/svg">
<path d="M0.621 20L7.533 1.1H11.421L18.333 20H14.661L13.149 15.626H5.778L4.239 20H0.621ZM6.723 12.926H12.204L9.45 5.069L6.723 12.926ZM20.6866 20V6.608H23.7376L24.0346 8.417C24.4666 7.769 25.0336 7.256 25.7356 6.878C26.4556 6.482 27.2836 6.284 28.2196 6.284C30.2896 6.284 31.7566 7.085 32.6206 8.687C33.1066 7.949 33.7546 7.364 34.5646 6.932C35.3926 6.5 36.2926 6.284 37.2646 6.284C39.0106 6.284 40.3516 6.806 41.2876 7.85C42.2236 8.894 42.6916 10.424 42.6916 12.44V20H39.2356V12.764C39.2356 11.612 39.0106 10.73 38.5606 10.118C38.1286 9.506 37.4536 9.2 36.5356 9.2C35.5996 9.2 34.8436 9.542 34.2676 10.226C33.7096 10.91 33.4306 11.864 33.4306 13.088V20H29.9746V12.764C29.9746 11.612 29.7496 10.73 29.2996 10.118C28.8496 9.506 28.1566 9.2 27.2206 9.2C26.3026 9.2 25.5556 9.542 24.9796 10.226C24.4216 10.91 24.1426 11.864 24.1426 13.088V20H20.6866ZM53.9108 20.324C52.9028 20.324 52.0208 20.135 51.2648 19.757C50.5088 19.379 49.8968 18.848 49.4288 18.164L49.0508 20H45.9728V0.559999H49.4288V8.525C49.8608 7.931 50.4278 7.409 51.1298 6.959C51.8498 6.509 52.7768 6.284 53.9108 6.284C55.1708 6.284 56.2958 6.59 57.2858 7.202C58.2758 7.814 59.0588 8.651 59.6348 9.713C60.2108 10.775 60.4988 11.981 60.4988 13.331C60.4988 14.681 60.2108 15.887 59.6348 16.949C59.0588 17.993 58.2758 18.821 57.2858 19.433C56.2958 20.027 55.1708 20.324 53.9108 20.324ZM53.1818 17.3C54.2798 17.3 55.1888 16.931 55.9088 16.193C56.6288 15.455 56.9888 14.501 56.9888 13.331C56.9888 12.161 56.6288 11.198 55.9088 10.442C55.1888 9.686 54.2798 9.308 53.1818 9.308C52.0658 9.308 51.1478 9.686 50.4278 10.442C49.7258 11.18 49.3748 12.134 49.3748 13.304C49.3748 14.474 49.7258 15.437 50.4278 16.193C51.1478 16.931 52.0658 17.3 53.1818 17.3ZM70.0931 20.324C68.7431 20.324 67.5461 20.036 66.5021 19.46C65.4581 18.884 64.6391 18.074 64.0451 17.03C63.4511 15.986 63.1541 14.78 63.1541 13.412C63.1541 12.026 63.4421 10.793 64.0181 9.713C64.6121 8.633 65.4221 7.796 66.4481 7.202C67.4921 6.59 68.7161 6.284 70.1201 6.284C71.4341 6.284 72.5951 6.572 73.6031 7.148C74.6111 7.724 75.3941 8.516 75.9521 9.524C76.5281 10.514 76.8161 11.621 76.8161 12.845C76.8161 13.043 76.8071 13.25 76.7891 13.466C76.7891 13.682 76.7801 13.907 76.7621 14.141H66.5831C66.6551 15.185 67.0151 16.004 67.6631 16.598C68.3291 17.192 69.1301 17.489 70.0661 17.489C70.7681 17.489 71.3531 17.336 71.8211 17.03C72.3071 16.706 72.6671 16.292 72.9011 15.788H76.4111C76.1591 16.634 75.7361 17.408 75.1421 18.11C74.5661 18.794 73.8461 19.334 72.9821 19.73C72.1361 20.126 71.1731 20.324 70.0931 20.324ZM70.1201 9.092C69.2741 9.092 68.5271 9.335 67.8791 9.821C67.2311 10.289 66.8171 11.009 66.6371 11.981H73.3061C73.2521 11.099 72.9281 10.397 72.3341 9.875C71.7401 9.353 71.0021 9.092 70.1201 9.092ZM79.7228 20V6.608H82.8008L83.1248 9.119C83.6108 8.255 84.2678 7.571 85.0958 7.067C85.9418 6.545 86.9318 6.284 88.0658 6.284V9.929H87.0938C86.3378 9.929 85.6628 10.046 85.0688 10.28C84.4748 10.514 84.0068 10.919 83.6648 11.495C83.3408 12.071 83.1788 12.872 83.1788 13.898V20H79.7228ZM90.5089 20V1.1H98.0959C100.058 1.1 101.552 1.559 102.578 2.477C103.622 3.377 104.144 4.538 104.144 5.96C104.144 7.148 103.82 8.102 103.172 8.822C102.542 9.524 101.768 10.001 100.85 10.253C101.93 10.469 102.821 11.009 103.523 11.873C104.225 12.719 104.576 13.709 104.576 14.843C104.576 16.337 104.036 17.57 102.956 18.542C101.876 19.514 100.346 20 98.3659 20H90.5089ZM93.9649 9.038H97.5829C98.5549 9.038 99.3019 8.813 99.8239 8.363C100.346 7.913 100.607 7.274 100.607 6.446C100.607 5.654 100.346 5.033 99.8239 4.583C99.3199 4.115 98.5549 3.881 97.5289 3.881H93.9649V9.038ZM93.9649 17.192H97.8259C98.8519 17.192 99.6439 16.958 100.202 16.49C100.778 16.004 101.066 15.329 101.066 14.465C101.066 13.583 100.769 12.89 100.175 12.386C99.5809 11.882 98.7799 11.63 97.7719 11.63H93.9649V17.192ZM109.324 4.529C108.694 4.529 108.172 4.34 107.758 3.962C107.362 3.584 107.164 3.107 107.164 2.531C107.164 1.955 107.362 1.487 107.758 1.127C108.172 0.748999 108.694 0.559999 109.324 0.559999C109.954 0.559999 110.467 0.748999 110.863 1.127C111.277 1.487 111.484 1.955 111.484 2.531C111.484 3.107 111.277 3.584 110.863 3.962C110.467 4.34 109.954 4.529 109.324 4.529ZM107.596 20V6.608H111.052V20H107.596ZM120.626 20C119.222 20 118.097 19.658 117.251 18.974C116.405 18.29 115.982 17.075 115.982 15.329V9.497H113.687V6.608H115.982L116.387 3.017H119.438V6.608H123.056V9.497H119.438V15.356C119.438 16.004 119.573 16.454 119.843 16.706C120.131 16.94 120.617 17.057 121.301 17.057H122.975V20H120.626ZM131.991 20C130.587 20 129.462 19.658 128.616 18.974C127.77 18.29 127.347 17.075 127.347 15.329V9.497H125.052V6.608H127.347L127.752 3.017H130.803V6.608H134.421V9.497H130.803V15.356C130.803 16.004 130.938 16.454 131.208 16.706C131.496 16.94 131.982 17.057 132.666 17.057H134.34V20H131.991ZM143.552 20.324C142.202 20.324 141.005 20.036 139.961 19.46C138.917 18.884 138.098 18.074 137.504 17.03C136.91 15.986 136.613 14.78 136.613 13.412C136.613 12.026 136.901 10.793 137.477 9.713C138.071 8.633 138.881 7.796 139.907 7.202C140.951 6.59 142.175 6.284 143.579 6.284C144.893 6.284 146.054 6.572 147.062 7.148C148.07 7.724 148.853 8.516 149.411 9.524C149.987 10.514 150.275 11.621 150.275 12.845C150.275 13.043 150.266 13.25 150.248 13.466C150.248 13.682 150.239 13.907 150.221 14.141H140.042C140.114 15.185 140.474 16.004 141.122 16.598C141.788 17.192 142.589 17.489 143.525 17.489C144.227 17.489 144.812 17.336 145.28 17.03C145.766 16.706 146.126 16.292 146.36 15.788H149.87C149.618 16.634 149.195 17.408 148.601 18.11C148.025 18.794 147.305 19.334 146.441 19.73C145.595 20.126 144.632 20.324 143.552 20.324ZM143.579 9.092C142.733 9.092 141.986 9.335 141.338 9.821C140.69 10.289 140.276 11.009 140.096 11.981H146.765C146.711 11.099 146.387 10.397 145.793 9.875C145.199 9.353 144.461 9.092 143.579 9.092ZM153.182 20V6.608H156.26L156.584 9.119C157.07 8.255 157.727 7.571 158.555 7.067C159.401 6.545 160.391 6.284 161.525 6.284V9.929H160.553C159.797 9.929 159.122 10.046 158.528 10.28C157.934 10.514 157.466 10.919 157.124 11.495C156.8 12.071 156.638 12.872 156.638 13.898V20H153.182Z" fill="black"/>
</svg>
